<svg id="Layer_1" data-name="Layer 1" xmlns="http://www.w3.org/2000/svg" viewBox="0 0 298.27 53.59"><defs><style>.cls-1{fill:#753ed7;}.cls-2{fill:#f84b00;}</style></defs><title>new logo gopocket</title><path class="cls-1" d="M517.74,202.58c-.9.78-1.73,1.62-2.67,2.3a12.08,12.08,0,0,1-7.06,2.27,18.11,18.11,0,0,1-6.37-.9,8.32,8.32,0,0,1-5.52-6.4,19.53,19.53,0,0,1-.49-4.16c0-12.08,0-24.14,0-36.22,0-.47.06-.76.63-.79,2.41-.13,4.83-.29,7.24-.44,0,0,.08,0,.13.07v.77q0,6.16,0,12.35c0,.48.13.77.66.77l13.48,0v8H504.44c-.5,0-.86.08-.85.71,0,4.6,0,9.2,0,13.8a4,4,0,0,0,3.14,4.07,13.54,13.54,0,0,0,3.48.36,21.64,21.64,0,0,0,7.5-1.73ZM485,195c0,1.57,0,3.11,0,4.68a1.08,1.08,0,0,1-.32.69,14.48,14.48,0,0,1-10.1,5.06A16.1,16.1,0,0,1,462.88,202a15.86,15.86,0,0,1-6.22-14.8c.73-7,4.59-11.66,11.11-14a15.87,15.87,0,0,1,12.89.85,11.38,11.38,0,0,1,5.52,7,16.52,16.52,0,0,1,.76,5.45c0,1.38,0,2.77,0,4.14,0,.67-.16.87-.85.87-4.76,0-9.52,0-14.29,0H466c-1,0-1.07.12-.8,1a6.62,6.62,0,0,0,5.13,4.66,18.36,18.36,0,0,0,13.08-1.59l1.43-.72Zm-12.76-10.53h5.61c.69,0,.77-.14.52-.73a5.44,5.44,0,0,0-5.64-3.43,8.6,8.6,0,0,0-6.41,3.36,2.24,2.24,0,0,0-.28.63,2.36,2.36,0,0,0,.67.17Zm-20.18-12.13c-.78.87-1.47,1.61-2.16,2.35q-4.07,4.36-8.15,8.74a.61.61,0,0,0-.08.87q6.36,10.18,12.69,20.39c.15.24.3.5.5.8a3.54,3.54,0,0,1-.47.06c-2.3,0-4.58,0-6.88,0a1,1,0,0,1-1-.51q-4.79-7.67-9.62-15.31c-.37-.6-.44-.61-.9-.1-1,1.09-2,2.17-3,3.29a1.62,1.62,0,0,0-.38,1c0,3.67,0,7.34,0,11,0,.17,0,.34,0,.57h-7.92V161.12a36.67,36.67,0,0,1,8-.56v.74q0,10.47,0,20.95a2,2,0,0,0,.17.52,2.24,2.24,0,0,0,.53-.33q4.44-4.73,8.83-9.48a1.82,1.82,0,0,1,1.5-.64C446.41,172.34,449.15,172.31,452.07,172.31Zm-86.51,0a15.44,15.44,0,0,1,11.55,4.54,16.07,16.07,0,0,1,4.48,10.45,18,18,0,0,1-2,10.38,14.33,14.33,0,0,1-11.7,7.68,18.75,18.75,0,0,1-7.6-.58,14.37,14.37,0,0,1-9.89-10c-1.92-6.4-1.12-12.44,3.41-17.62a13.57,13.57,0,0,1,8.55-4.52C363.38,172.51,364.47,172.44,365.56,172.35Zm-7.9,16.54a9,9,0,0,0,.76,3.76A7.8,7.8,0,0,0,371.47,195a9,9,0,0,0,1.51-9.9,7.92,7.92,0,0,0-11.82-3.46A8.73,8.73,0,0,0,357.66,188.89ZM413,183a12.53,12.53,0,0,0-9-2.61,6.65,6.65,0,0,0-5.43,3.33,9.47,9.47,0,0,0-.12,10.3,7,7,0,0,0,6.3,3.59,24.92,24.92,0,0,0,10.12-2.32c.23-.09.44-.2.67-.28,0,0,.08,0,.2,0,0,1.3-.06,2.6,0,3.9a2.72,2.72,0,0,1-.87,2.17,15.4,15.4,0,0,1-22.36-.9,16.12,16.12,0,0,1-3.7-8.59A17.84,17.84,0,0,1,391.61,179a14.14,14.14,0,0,1,10.08-6.32,15.93,15.93,0,0,1,8.85.88,16.13,16.13,0,0,1,2.28,1.36.65.65,0,0,1,.24.49c0,2.49,0,5,0,7.46A1.32,1.32,0,0,1,413,183ZM321.57,156a18.64,18.64,0,0,1,3.52-1,17.79,17.79,0,0,1,10.47,1.15c5.85,2.63,9.58,7.06,10.74,13.44a17.83,17.83,0,0,1-1.83,12.09,17.32,17.32,0,0,1-8.75,8,18.31,18.31,0,0,1-15.45-.39c-1.33-.63-1.33-.64-1.33.82q0,8.1,0,16.21c0,.06,0,.12-.06.26h-8.81c0-.44,0-10.88,0-25.33V155.94Zm6.73,26.47a9.51,9.51,0,0,0,.08-19c-5.5-.09-9.56,5-9.5,9.51A9.63,9.63,0,0,0,328.3,182.44Zm-18.21-13.9c0,3.81,0-11.74,0-11.53v-1.07l11.47,0c-.06.06-11.37,0-11.47,0v12.6Z" transform="translate(-219.47 -153.55)"/><path class="cls-2" d="M271.38,175.66c0-.07.06,0,0,0v1.65c0,.36,0,.72,0,1.09,0,1,0,2,0,2.95,0,.19,0,.36,0,.55a25.32,25.32,0,0,1-2.81,10,26.6,26.6,0,0,1-11.62,11.42,23.32,23.32,0,0,1-8.5,2.55,25.37,25.37,0,0,1-27.26-16.58,24.83,24.83,0,0,1-1.62-7.19,25.84,25.84,0,0,1,3.21-15c4-7.17,10.32-11,18.19-12.59a27.07,27.07,0,0,1,13.4.83l.24.08c.22.07.12.05.56.18-.56.37-1.57,1-2.08,1.4a24.71,24.71,0,0,0-4.69,4.27l-.77.87a18.22,18.22,0,0,0-11.79,2.92,17.68,17.68,0,0,0-3,27.09,17.29,17.29,0,0,0,20.75,3.41,17.62,17.62,0,0,0,8.69-10.52c.29-.87.22-1-.7-1-5.68,0-11.36,0-17,0h-.12c-.54,0,5,0-.68,0v-4.68q0-.57,0-1.14a26,26,0,0,1,1.73-8.11,25.63,25.63,0,0,1,12.43-13.84,25,25,0,0,1,8.24-2.57A25.68,25.68,0,0,1,280.8,156a26.17,26.17,0,0,1,10.62,9.22,24.93,24.93,0,0,1,3.93,10.28,25.32,25.32,0,0,1,.4,4.35,33.12,33.12,0,0,1-.31,3.84,25.48,25.48,0,0,1-4.38,11l-.29.41c-.09.11-.17.24-.26.36-.31.4-.63.79-.95,1.18s-.53.61-.79.9-.73.76-1.1,1.12l-.29.28c-.56.54-1.23,1.1-1.84,1.58l-.79.59-.25.17c-.2.15-.44.31-.65.45s-.44.26-.67.4l-.74.43-.68.37c-.28.15-.49.28-.78.41l-.29.13-.17.08-.33.16-.26.11c-.22.1-.45.2-.69.29a22.87,22.87,0,0,1-6,1.55,2,2,0,0,0-.24,0l-.49,0h0c-.12,0-.23,0-.35,0l-.32,0c-.37,0-.74.06-1.12.07h-.48a25.53,25.53,0,0,1-9.78-1.72.39.39,0,0,1-.11-.06c-.16-.08-.22,0-.12-.1l.71-.5-.71.5s.06,0,0,0a27.15,27.15,0,0,0,7.34-6.67c-.16.2.24-.32,0,0l.37,0a16.52,16.52,0,0,0,10.62-2.28,17.38,17.38,0,0,0,8.69-12.8,17.58,17.58,0,0,0-29.7-15.22,17.28,17.28,0,0,0-4.66,7.75c-.23.77-.16.84.64.84H266Zm-5.41,0v0h5.41Z" transform="translate(-219.47 -153.55)"/></svg>